<?xml version="1.0" encoding="UTF-8"?>
<svg width="700pt" height="700pt" version="1.1" viewBox="0 0 700 700" xmlns="http://www.w3.org/2000/svg" xmlns:xlink="http://www.w3.org/1999/xlink">

 <g>
  <path d="m249.2 229.6v100.8c0 55.441 45.359 100.8 100.8 100.8s100.8-45.359 100.8-100.8v-100.8c0-55.441-45.359-100.8-100.8-100.8s-100.8 45.359-100.8 100.8zm100.8-78.402c43.121 0 78.398 35.281 78.398 78.398v100.8c0 43.121-35.281 78.398-78.398 78.398-43.121 0-78.398-35.281-78.398-78.398v-100.8c0-43.121 35.277-78.402 78.398-78.402z"/>
  <path d="m350 246.4c6.1602 0 11.199-5.0391 11.199-11.199v-33.602c0-6.1602-5.0391-11.199-11.199-11.199s-11.199 5.0391-11.199 11.199v33.602c0 6.1602 5.0391 11.199 11.199 11.199z"/>
  <path d="m342.16 517.44c2.2383 2.2383 5.0391 3.3594 7.8398 3.3594s5.6016-1.1211 7.8398-3.3594l28-28c4.4805-4.4805 4.4805-11.199 0-15.68-4.4805-4.4805-11.199-4.4805-15.68 0l-20.16 20.16-20.16-20.16c-4.4805-4.4805-11.199-4.4805-15.68 0-4.4805 4.4805-4.4805 11.199 0 15.68z"/>
  <path d="m342.16 42.559-28 28c-4.4805 4.4805-4.4805 11.199 0 15.68 2.2383 2.2422 5.0391 3.3633 7.8398 3.3633s5.6016-1.1211 7.8398-3.3594l20.16-20.16 20.16 20.16c2.2383 2.2383 5.0391 3.3594 7.8398 3.3594s5.6016-1.1211 7.8398-3.3594c4.4805-4.4805 4.4805-11.199 0-15.68l-28-28c-4.4805-4.4844-11.199-4.4844-15.68-0.003906z"/>
  <use x="70" y="644" xlink:href="#t"/>
  <use x="90.550781" y="644" xlink:href="#e"/>
  <use x="104.359375" y="644" xlink:href="#a"/>
  <use x="123.347656" y="644" xlink:href="#i"/>
  <use x="142.242188" y="644" xlink:href="#d"/>
  <use x="155.628906" y="644" xlink:href="#a"/>
  <use x="174.617188" y="644" xlink:href="#c"/>
  <use x="204.410156" y="644" xlink:href="#h"/>
  <use x="224.453125" y="644" xlink:href="#g"/>
  <use x="252.453125" y="644" xlink:href="#f"/>
  <use x="271.070312" y="644" xlink:href="#s"/>
  <use x="280.671875" y="644" xlink:href="#c"/>
  <use x="300.710938" y="644" xlink:href="#c"/>
  <use x="320.757812" y="644" xlink:href="#b"/>
  <use x="70" y="672" xlink:href="#r"/>
  <use x="82.183594" y="672" xlink:href="#e"/>
  <use x="95.992188" y="672" xlink:href="#b"/>
  <use x="115.226562" y="672" xlink:href="#q"/>
  <use x="154.152344" y="672" xlink:href="#d"/>
  <use x="167.535156" y="672" xlink:href="#p"/>
  <use x="187.46875" y="672" xlink:href="#a"/>
  <use x="216.207031" y="672" xlink:href="#o"/>
  <use x="239.640625" y="672" xlink:href="#b"/>
  <use x="258.878906" y="672" xlink:href="#n"/>
  <use x="278.8125" y="672" xlink:href="#m"/>
  <use x="308.492188" y="672" xlink:href="#l"/>
  <use x="329.015625" y="672" xlink:href="#e"/>
  <use x="342.820312" y="672" xlink:href="#b"/>
  <use x="362.058594" y="672" xlink:href="#k"/>
  <use x="371.65625" y="672" xlink:href="#a"/>
  <use x="390.648438" y="672" xlink:href="#j"/>
  <use x="407.242188" y="672" xlink:href="#d"/>
 </g>
</svg>
